<svg width="293" height="100" viewBox="0 0 293 100" fill="none" xmlns="http://www.w3.org/2000/svg">
<path d="M92.1203 37.1467H88.8608C86.3271 37.1467 84.5658 34.6296 85.4315 32.249L88.1084 24.8976C88.974 22.5171 87.2127 20 84.679 20H49.3903C46.3239 20 43.5838 21.9178 42.5317 24.8011L24.2231 75.1024C23.3574 77.4829 25.1187 80 27.6524 80H76.6218C79.6882 80 82.4283 78.0822 83.4804 75.1989L95.5497 42.0376C96.4153 39.6571 94.654 37.14 92.1203 37.14V37.1467ZM72.1836 41.2552L68.7077 68.6066C68.4747 70.4278 66.9265 71.7962 65.0886 71.7962H40.5773C37.7506 71.7962 35.996 68.7198 37.4376 66.2893L52.5799 40.7292C53.895 38.5117 56.2789 37.15 58.8592 37.15H68.5645C70.762 37.15 72.46 39.0777 72.1836 41.2585V41.2552Z" fill="white"/>
<path d="M132.895 63.4463H116.078L112.918 72.8287H102.946L119.234 27.1819H130.011L146.176 72.8287H135.831L132.888 63.4463H132.895ZM130.231 55.5788L124.534 37.6164L118.651 55.5788H130.234H130.231Z" fill="white"/>
<path d="M160.334 31.8093C160.334 34.2797 158.329 36.284 155.859 36.284C153.389 36.284 151.384 34.2797 151.384 31.8093C151.384 29.3388 153.389 27.3345 155.859 27.3345C158.329 27.3345 160.334 29.3388 160.334 31.8093ZM160.334 39.0741V72.8281H151.384V39.0741H160.334Z" fill="white"/>
<path d="M199.849 72.8282H189.195L181.111 58.3984L177.455 62.2073V72.8282H168.785V27.338H177.455V51.9259L188.449 39.2307H199.379L187.58 52.1457L199.842 72.8315L199.849 72.8282Z" fill="white"/>
<path d="M232.303 42.1706C235.153 45.7431 236.578 49.9648 236.578 54.8358C236.578 59.7068 235.153 64.0284 232.303 67.5476C229.453 71.0668 225.128 72.8281 219.328 72.8281C213.528 72.8281 209.203 71.0702 206.353 67.5476C203.503 64.0284 202.078 59.79 202.078 54.8358C202.078 49.8816 203.503 45.7431 206.353 42.1706C209.203 38.5981 213.528 36.8135 219.328 36.8135C225.128 36.8135 229.453 38.5981 232.303 42.1706ZM219.295 44.2748C216.714 44.2748 214.727 45.187 213.335 47.0149C211.94 48.8428 211.244 51.4497 211.244 54.8358C211.244 58.2218 211.94 60.8321 213.335 62.67C214.73 64.5078 216.714 65.4268 219.295 65.4268C221.875 65.4268 223.856 64.5078 225.241 62.67C226.623 60.8321 227.315 58.2218 227.315 54.8358C227.315 51.4497 226.623 48.8428 225.241 47.0149C223.856 45.187 221.875 44.2748 219.295 44.2748Z" fill="white"/>
<path d="M268.937 72.8286H239.798V65.9533L257.108 46.2563H240.973V39.0714H268.348V46.4095L251.221 65.5771H268.934V72.822L268.937 72.8286Z" fill="white"/>
</svg>
