<svg width="293" height="118" viewBox="0 0 293 118" fill="none" xmlns="http://www.w3.org/2000/svg">
<path d="M132.9 63.4457H116.083L112.923 72.828H102.951L119.239 27.1814H130.016L146.181 72.828H135.836L132.893 63.4457H132.9ZM130.236 55.5782L124.539 37.6159L118.656 55.5782H130.239H130.236Z" fill="#0A1128"/>
<path d="M160.336 31.8092C160.336 34.2797 158.332 36.284 155.861 36.284C153.391 36.284 151.387 34.2797 151.387 31.8092C151.387 29.3388 153.391 27.3345 155.861 27.3345C158.332 27.3345 160.336 29.3388 160.336 31.8092ZM160.336 39.0741V72.828H151.387V39.0741H160.336Z" fill="#0A1128"/>
<path d="M199.851 72.8281H189.196L181.113 58.3983L177.457 62.2072V72.8281H168.787V27.338H177.457V51.9259L188.451 39.2307H199.381L187.582 52.1456L199.844 72.8314L199.851 72.8281Z" fill="#0A1128"/>
<path d="M232.307 42.1705C235.157 45.743 236.582 49.9648 236.582 54.8357C236.582 59.7067 235.157 64.0283 232.307 67.5476C229.457 71.0668 225.132 72.828 219.332 72.828C213.532 72.828 209.207 71.0701 206.357 67.5476C203.507 64.0283 202.082 59.79 202.082 54.8357C202.082 49.8815 203.507 45.743 206.357 42.1705C209.207 38.5981 213.532 36.8135 219.332 36.8135C225.132 36.8135 229.457 38.5981 232.307 42.1705ZM219.299 44.2748C216.718 44.2748 214.731 45.187 213.339 47.0149C211.944 48.8427 211.248 51.4497 211.248 54.8357C211.248 58.2218 211.944 60.8321 213.339 62.6699C214.734 64.5078 216.718 65.4267 219.299 65.4267C221.879 65.4267 223.86 64.5078 225.245 62.6699C226.627 60.8321 227.319 58.2218 227.319 54.8357C227.319 51.4497 226.627 48.8427 225.245 47.0149C223.86 45.187 221.879 44.2748 219.299 44.2748Z" fill="#0A1128"/>
<path d="M268.94 72.828H239.801V65.9527L257.111 46.2557H240.976V39.0708H268.351V46.4088L251.224 65.5764H268.937V72.8213L268.94 72.828Z" fill="#0A1128"/>
<path d="M168.789 93.9867V79.9897H170.088V85.6232C170.63 84.9539 171.24 84.4545 171.915 84.1249C172.588 83.7953 173.327 83.6288 174.133 83.6288C175.561 83.6288 176.78 84.1482 177.792 85.1837C178.804 86.2191 179.307 87.4777 179.307 88.9559C179.307 90.4342 178.797 91.6628 177.775 92.6982C176.756 93.7303 175.528 94.2497 174.093 94.2497C173.27 94.2497 172.525 94.0733 171.859 93.7204C171.19 93.3674 170.6 92.8381 170.088 92.1322V93.99H168.789V93.9867ZM173.99 92.9945C174.712 92.9945 175.378 92.8181 175.991 92.4618C176.603 92.1056 177.089 91.6062 177.449 90.9636C177.809 90.321 177.992 89.6385 177.992 88.9226C177.992 88.2068 177.809 87.5209 177.446 86.8717C177.083 86.2225 176.593 85.7164 175.977 85.3535C175.361 84.9906 174.705 84.8108 174.01 84.8108C173.314 84.8108 172.625 84.9906 171.985 85.3535C171.346 85.7164 170.857 86.2025 170.514 86.8151C170.171 87.4277 170.001 88.1169 170.001 88.886C170.001 90.0547 170.384 91.0335 171.153 91.8193C171.922 92.605 172.868 92.9979 173.993 92.9979L173.99 92.9945Z" fill="#0A1128"/>
<path d="M180.588 83.8887H181.963L185.432 91.6663L188.802 83.8887H190.183L184.16 97.6825H182.789L184.733 93.2244L180.588 83.8887Z" fill="#0A1128"/>
<path d="M203.846 79.9898C205.913 79.9898 207.645 80.679 209.04 82.0608C210.431 83.4425 211.13 85.1405 211.13 87.1581C211.13 89.1758 210.435 90.8538 209.046 92.2455C207.655 93.6372 205.96 94.3331 203.962 94.3331C201.964 94.3331 200.23 93.6405 198.835 92.2522C197.44 90.8671 196.744 89.1891 196.744 87.2214C196.744 85.9096 197.06 84.6943 197.696 83.5723C198.332 82.4536 199.194 81.5746 200.293 80.9421C201.388 80.3095 202.574 79.9898 203.852 79.9898H203.846ZM203.906 81.3149C202.897 81.3149 201.938 81.578 201.032 82.104C200.127 82.6301 199.421 83.3393 198.911 84.2315C198.402 85.1238 198.149 86.116 198.149 87.2147C198.149 88.8362 198.712 90.2079 199.837 91.3266C200.962 92.4453 202.317 93.0046 203.906 93.0046C204.964 93.0046 205.947 92.7483 206.849 92.2322C207.751 91.7195 208.454 91.017 208.96 90.1247C209.466 89.2324 209.719 88.2435 209.719 87.1515C209.719 86.0594 209.466 85.0872 208.96 84.2116C208.454 83.3359 207.744 82.6334 206.825 82.1074C205.907 81.5813 204.934 81.3183 203.906 81.3183V81.3149Z" fill="#0A1128"/>
<path d="M213.645 79.9897H214.943V87.9638L219.624 83.8885H221.532L215.982 88.7062L221.858 93.9867H220.03L214.943 89.4387V93.9867H213.645V79.9897Z" fill="#0A1128"/>
<path d="M223.029 83.8885H224.328V88.603C224.328 89.755 224.391 90.5474 224.514 90.9802C224.7 91.5995 225.053 92.0889 225.579 92.4485C226.102 92.8081 226.728 92.9879 227.454 92.9879C228.18 92.9879 228.792 92.8148 229.298 92.4618C229.804 92.1122 230.151 91.6528 230.344 91.0834C230.474 90.6939 230.54 89.8682 230.54 88.6063V83.8919H231.869V88.8494C231.869 90.2411 231.706 91.2899 231.383 91.9957C231.06 92.7016 230.57 93.2542 229.914 93.6538C229.262 94.0533 228.443 94.2531 227.461 94.2531C226.478 94.2531 225.656 94.0533 224.997 93.6538C224.338 93.2542 223.845 92.6982 223.522 91.9824C223.199 91.2666 223.036 90.1912 223.036 88.7562V83.8919L223.029 83.8885Z" fill="#0A1128"/>
<path d="M244.834 79.99V93.987H243.552V92.2523C243.006 92.9149 242.396 93.4143 241.717 93.7472C241.038 94.0802 240.299 94.25 239.493 94.25C238.065 94.25 236.843 93.7306 235.831 92.6951C234.819 91.6597 234.312 90.3978 234.312 88.9129C234.312 87.428 234.822 86.216 235.844 85.1806C236.866 84.1485 238.095 83.6291 239.53 83.6291C240.359 83.6291 241.108 83.8055 241.78 84.1584C242.453 84.5114 243.042 85.0408 243.548 85.7466V79.99H244.83H244.834ZM239.64 84.8809C238.917 84.8809 238.248 85.0574 237.635 85.4137C237.023 85.7699 236.537 86.2693 236.174 86.9119C235.811 87.5545 235.631 88.2337 235.631 88.9528C235.631 89.672 235.814 90.3446 236.177 90.9938C236.543 91.643 237.033 92.1491 237.645 92.5087C238.258 92.8683 238.92 93.0514 239.626 93.0514C240.332 93.0514 241.011 92.8716 241.647 92.512C242.283 92.1524 242.773 91.6697 243.116 91.0571C243.458 90.4444 243.632 89.7552 243.632 88.9895C243.632 87.8208 243.245 86.8453 242.476 86.0596C241.707 85.2738 240.758 84.8809 239.633 84.8809H239.64Z" fill="#0A1128"/>
<path d="M256.275 90.6371L257.371 91.2131C257.011 91.919 256.595 92.4883 256.126 92.9211C255.656 93.354 255.127 93.6836 254.537 93.91C253.948 94.1364 253.282 94.2496 252.54 94.2496C250.892 94.2496 249.603 93.7102 248.674 92.6281C247.745 91.5494 247.279 90.3275 247.279 88.9658C247.279 87.6839 247.672 86.5419 248.458 85.5398C249.457 84.2646 250.789 83.6287 252.463 83.6287C254.138 83.6287 255.56 84.2812 256.588 85.5864C257.321 86.5086 257.69 87.6606 257.704 89.039H248.618C248.641 90.211 249.017 91.1732 249.743 91.9223C250.469 92.6714 251.365 93.0477 252.43 93.0477C252.943 93.0477 253.445 92.9578 253.932 92.778C254.418 92.5982 254.83 92.3618 255.173 92.0655C255.513 91.7691 255.883 91.293 256.279 90.6338L256.275 90.6371ZM256.275 87.917C256.102 87.2245 255.849 86.6718 255.516 86.2556C255.183 85.8427 254.747 85.5065 254.201 85.2534C253.655 85.0004 253.083 84.8739 252.483 84.8739C251.491 84.8739 250.639 85.1935 249.926 85.8294C249.407 86.2922 249.011 86.9914 248.748 87.917H256.275Z" fill="#0A1128"/>
<path d="M260.129 83.8884H261.427V85.6996C261.947 85.0071 262.523 84.4877 263.155 84.1447C263.788 83.8018 264.474 83.6287 265.216 83.6287C265.959 83.6287 266.641 83.8218 267.227 84.2047C267.813 84.5875 268.243 85.1036 268.522 85.7562C268.802 86.4088 268.939 87.4176 268.939 88.7926V93.9899H267.64V89.1722C267.64 88.0102 267.59 87.2311 267.497 86.8416C267.347 86.1724 267.057 85.6696 266.631 85.3333C266.205 84.9971 265.646 84.8273 264.96 84.8273C264.174 84.8273 263.468 85.087 262.849 85.6064C262.23 86.1257 261.817 86.7683 261.621 87.5374C261.497 88.0402 261.434 88.9558 261.434 90.2842V93.9866H260.136V83.8884H260.129Z" fill="#0A1128"/>
<path d="M92.1205 37.1466H88.861C86.3273 37.1466 84.566 34.6296 85.4316 32.249L88.1085 24.8976C88.9742 22.5171 87.2129 20 84.6792 20H49.3904C46.3239 20 43.5838 21.9178 42.5317 24.8011L24.2231 75.1023C23.3574 77.4828 25.1187 79.9999 27.6524 79.9999H76.6219C79.6883 79.9999 82.4285 78.0821 83.4806 75.1988L95.5498 42.0376C96.4155 39.657 94.6542 37.14 92.1205 37.14V37.1466ZM72.1838 41.2552L68.7078 68.6065C68.4748 70.4277 66.9266 71.7961 65.0887 71.7961H40.5773C37.7506 71.7961 35.996 68.7197 37.4376 66.2892L52.58 40.7291C53.8951 38.5117 56.279 37.15 58.8593 37.15H68.5646C70.7621 37.15 72.4601 39.0777 72.1838 41.2585V41.2552Z" fill="#0A1128"/>
</svg>
