<svg width="164" height="152" viewBox="0 0 164 152" fill="none" xmlns="http://www.w3.org/2000/svg">
<path d="M112.276 30.7666H109.421C107.202 30.7666 105.661 28.5615 106.418 26.4809L108.761 20.0454C109.518 17.9613 107.977 15.7596 105.758 15.7596H74.8623C72.1768 15.7596 69.7782 17.4394 68.8589 19.9624L52.8288 64.0053C52.0719 66.0894 53.6134 68.291 55.8323 68.291H98.7104C101.396 68.291 103.795 66.6113 104.714 64.0882L115.28 35.0558C116.036 32.9717 114.495 30.7701 112.276 30.7701V30.7666ZM94.8186 34.3611L91.7772 58.3094C91.5732 59.9062 90.2184 61.102 88.6078 61.102H67.148C64.6733 61.102 63.1388 58.4096 64.4003 56.2806L77.6584 33.898C78.8094 31.9556 80.8969 30.7666 83.1538 30.7666H91.6527C93.5779 30.7666 95.064 32.4567 94.8221 34.3646L94.8186 34.3611Z" fill="white"/>
<path d="M41.5271 108.653H28.7943L26.4026 115.759H18.8507L31.186 81.1966H39.3462L51.5847 115.759H43.7529L41.5236 108.653H41.5271ZM39.5121 102.698L35.1987 89.0976L30.7436 102.698H39.5121Z" fill="white"/>
<path d="M62.3026 84.7013C62.3026 86.5712 60.7853 88.0884 58.9155 88.0884C57.0456 88.0884 55.5284 86.5712 55.5284 84.7013C55.5284 82.8315 57.0456 81.3142 58.9155 81.3142C60.7853 81.3142 62.3026 82.8315 62.3026 84.7013ZM62.3026 90.2002V115.759H55.5249V90.2002H62.3026Z" fill="white"/>
<path d="M92.2226 115.759H84.1558L78.0348 104.834L75.2663 107.716V115.759H68.6995V81.3142H75.2663V99.933L83.5889 90.3177H91.8666L82.9322 100.095L92.2192 115.759H92.2226Z" fill="white"/>
<path d="M116.796 92.5434C118.953 95.2462 120.031 98.4432 120.031 102.134C120.031 105.826 118.953 109.095 116.796 111.76C114.64 114.425 111.363 115.759 106.97 115.759C102.577 115.759 99.3042 114.428 97.1441 111.76C94.9874 109.095 93.9091 105.888 93.9091 102.134C93.9091 98.381 94.9874 95.2496 97.1441 92.5434C99.3008 89.8406 102.577 88.4858 106.97 88.4858C111.363 88.4858 114.636 89.8372 116.796 92.5434ZM106.946 94.1402C104.993 94.1402 103.486 94.8314 102.432 96.2139C101.378 97.5964 100.849 99.5699 100.849 102.134C100.849 104.699 101.378 106.676 102.432 108.065C103.486 109.458 104.993 110.153 106.946 110.153C108.899 110.153 110.399 109.458 111.449 108.065C112.497 106.676 113.022 104.696 113.022 102.134C113.022 99.5734 112.497 97.5964 111.449 96.2139C110.402 94.8314 108.902 94.1402 106.946 94.1402Z" fill="white"/>
<path d="M144.532 115.759H122.467V110.554L135.573 95.6402H123.355V90.2001H144.082V95.7577L131.115 110.27H144.528V115.759H144.532Z" fill="white"/>
<path d="M68.701 133.199V122.599H69.6861V126.864C70.0974 126.359 70.5605 125.979 71.0686 125.73C71.5801 125.481 72.1366 125.353 72.7483 125.353C73.8301 125.353 74.7529 125.747 75.5168 126.532C76.2806 127.317 76.6642 128.271 76.6642 129.39C76.6642 130.51 76.2771 131.44 75.5064 132.224C74.7356 133.006 73.8059 133.4 72.7207 133.4C72.0985 133.4 71.5352 133.265 71.0271 132.999C70.5225 132.733 70.0732 132.332 69.6861 131.796V133.203H68.701V133.199ZM72.6377 132.446C73.1838 132.446 73.6884 132.311 74.1515 132.041C74.6147 131.772 74.981 131.395 75.2575 130.908C75.5306 130.42 75.6688 129.905 75.6688 129.363C75.6688 128.82 75.5306 128.302 75.2541 127.811C74.9776 127.32 74.6078 126.936 74.1412 126.663C73.6746 126.39 73.1803 126.252 72.6515 126.252C72.1227 126.252 71.6043 126.39 71.1204 126.663C70.6365 126.936 70.2633 127.306 70.0041 127.769C69.7448 128.232 69.6135 128.754 69.6135 129.335C69.6135 130.22 69.9038 130.959 70.4879 131.557C71.0686 132.152 71.7875 132.449 72.6377 132.449V132.446Z" fill="white"/>
<path d="M77.6353 125.55H78.6756L81.3024 131.44L83.8531 125.55H84.9003L80.3381 135.995H79.2977L80.7701 132.618L77.6318 125.55H77.6353Z" fill="white"/>
<path d="M95.2434 122.599C96.8091 122.599 98.119 123.121 99.1732 124.164C100.227 125.208 100.756 126.494 100.756 128.022C100.756 129.549 100.231 130.818 99.1766 131.872C98.1225 132.926 96.8402 133.455 95.3264 133.455C93.8125 133.455 92.4992 132.929 91.445 131.879C90.3909 130.828 89.8621 129.56 89.8621 128.07C89.8621 127.078 90.104 126.155 90.5844 125.308C91.0648 124.462 91.7215 123.795 92.551 123.314C93.3805 122.834 94.2791 122.595 95.2434 122.595V122.599ZM95.2884 123.605C94.5245 123.605 93.7987 123.805 93.1144 124.202C92.43 124.6 91.8943 125.139 91.5107 125.813C91.127 126.487 90.9335 127.241 90.9335 128.07C90.9335 129.3 91.3586 130.337 92.2123 131.184C93.066 132.031 94.089 132.453 95.2918 132.453C96.0937 132.453 96.8368 132.259 97.5211 131.868C98.2054 131.478 98.7377 130.946 99.1179 130.272C99.5015 129.598 99.6916 128.848 99.6916 128.022C99.6916 127.196 99.5015 126.459 99.1179 125.796C98.7342 125.132 98.1985 124.6 97.5038 124.202C96.8091 123.805 96.0729 123.605 95.2918 123.605H95.2884Z" fill="white"/>
<path d="M102.663 122.599H103.648V128.637L107.194 125.55H108.639L104.436 129.197L108.884 133.196H107.498L103.648 129.753V133.196H102.663V122.595V122.599Z" fill="white"/>
<path d="M109.767 125.55H110.752V129.121C110.752 129.992 110.8 130.593 110.893 130.921C111.035 131.391 111.301 131.761 111.699 132.031C112.096 132.304 112.566 132.439 113.116 132.439C113.665 132.439 114.132 132.307 114.512 132.041C114.896 131.775 115.158 131.429 115.304 130.997C115.404 130.704 115.452 130.078 115.452 129.121V125.55H116.458V129.304C116.458 130.358 116.334 131.153 116.088 131.685C115.843 132.217 115.473 132.639 114.979 132.94C114.484 133.241 113.866 133.393 113.119 133.393C112.373 133.393 111.751 133.241 111.253 132.94C110.755 132.639 110.382 132.217 110.137 131.675C109.891 131.132 109.767 130.32 109.767 129.231V125.547V125.55Z" fill="white"/>
<path d="M126.278 122.599V133.199H125.307V131.886C124.895 132.387 124.432 132.764 123.917 133.016C123.402 133.268 122.842 133.396 122.234 133.396C121.152 133.396 120.226 133.002 119.462 132.218C118.695 131.433 118.315 130.479 118.315 129.352C118.315 128.226 118.702 127.31 119.476 126.529C120.25 125.748 121.18 125.353 122.265 125.353C122.894 125.353 123.461 125.488 123.969 125.754C124.477 126.021 124.923 126.421 125.307 126.957V122.599H126.278ZM122.345 126.304C121.799 126.304 121.291 126.439 120.827 126.708C120.364 126.978 119.994 127.355 119.721 127.842C119.448 128.329 119.31 128.844 119.31 129.387C119.31 129.93 119.448 130.441 119.725 130.932C120.001 131.423 120.371 131.806 120.838 132.079C121.304 132.352 121.802 132.491 122.338 132.491C122.873 132.491 123.385 132.356 123.869 132.083C124.349 131.81 124.723 131.443 124.982 130.98C125.241 130.517 125.372 129.995 125.372 129.415C125.372 128.53 125.082 127.79 124.498 127.196C123.914 126.601 123.198 126.304 122.345 126.304Z" fill="white"/>
<path d="M134.948 130.662L135.777 131.098C135.504 131.634 135.19 132.062 134.834 132.39C134.478 132.719 134.077 132.968 133.631 133.14C133.185 133.313 132.68 133.396 132.117 133.396C130.869 133.396 129.895 132.988 129.19 132.169C128.485 131.35 128.135 130.427 128.135 129.397C128.135 128.426 128.433 127.562 129.027 126.805C129.781 125.841 130.793 125.357 132.058 125.357C133.323 125.357 134.402 125.851 135.183 126.84C135.736 127.538 136.016 128.409 136.026 129.453H129.145C129.162 130.341 129.449 131.07 129.995 131.637C130.541 132.204 131.222 132.487 132.027 132.487C132.418 132.487 132.795 132.418 133.164 132.283C133.534 132.148 133.845 131.969 134.104 131.744C134.364 131.519 134.64 131.16 134.941 130.659L134.948 130.662ZM134.948 128.602C134.816 128.077 134.626 127.659 134.374 127.344C134.122 127.03 133.79 126.778 133.379 126.584C132.967 126.39 132.532 126.297 132.076 126.297C131.326 126.297 130.679 126.539 130.14 127.019C129.746 127.372 129.449 127.897 129.245 128.602H134.944H134.948Z" fill="white"/>
<path d="M137.863 125.55H138.848V126.923C139.242 126.397 139.678 126.007 140.155 125.744C140.632 125.481 141.154 125.353 141.714 125.353C142.274 125.353 142.792 125.499 143.234 125.789C143.677 126.079 144.005 126.47 144.216 126.964C144.427 127.458 144.534 128.222 144.534 129.262V133.199H143.549V129.553C143.549 128.671 143.511 128.084 143.438 127.79C143.324 127.285 143.107 126.902 142.782 126.649C142.457 126.394 142.035 126.266 141.517 126.266C140.922 126.266 140.386 126.463 139.916 126.857C139.446 127.251 139.135 127.738 138.987 128.319C138.893 128.699 138.845 129.39 138.845 130.4V133.203H137.86V125.554L137.863 125.55Z" fill="white"/>
</svg>
