<svg width="164" height="132" viewBox="0 0 164 132" fill="none" xmlns="http://www.w3.org/2000/svg">
<path d="M112.282 30.7673H109.428C107.209 30.7673 105.667 28.5622 106.424 26.4815L108.767 20.0459C109.524 17.9618 107.983 15.7602 105.764 15.7602H74.8681C72.1825 15.7602 69.7838 17.4399 68.8645 19.963L52.8342 64.0061C52.0773 66.0902 53.6188 68.2918 55.8377 68.2918H98.7165C101.402 68.2918 103.801 66.6121 104.72 64.089L115.286 35.0565C116.043 32.9723 114.501 30.7707 112.282 30.7707V30.7673ZM94.8247 34.3618L91.7831 58.3101C91.5792 59.9069 90.2244 61.1028 88.6137 61.1028H67.1536C64.6789 61.1028 63.1443 58.4104 64.4059 56.2813L77.6642 33.8986C78.8151 31.9562 80.9027 30.7673 83.1597 30.7673H91.6587C93.5839 30.7673 95.0701 32.4574 94.8281 34.3652L94.8247 34.3618Z" fill="white"/>
<path d="M41.5328 108.654H28.7998L26.4081 115.76H18.8561L31.1916 81.1972H39.3519L51.5906 115.76H43.7587L41.5294 108.654H41.5328ZM39.5178 102.699L35.2043 89.0982L30.7492 102.699H39.5178Z" fill="white"/>
<path d="M62.3077 84.7018C62.3077 86.5716 60.7904 88.0889 58.9205 88.0889C57.0507 88.0889 55.5334 86.5716 55.5334 84.7018C55.5334 82.8319 57.0507 81.3146 58.9205 81.3146C60.7904 81.3146 62.3077 82.8319 62.3077 84.7018ZM62.3077 90.2007V115.76H55.5299V90.2007H62.3077Z" fill="white"/>
<path d="M92.2292 115.76H84.1622L78.0411 104.835L75.2726 107.717V115.76H68.7057V81.3149H75.2726V99.9337L83.5954 90.3184H91.8732L82.9387 100.096L92.2258 115.76H92.2292Z" fill="white"/>
<path d="M116.804 92.5442C118.961 95.247 120.039 98.444 120.039 102.135C120.039 105.827 118.961 109.096 116.804 111.761C114.647 114.426 111.371 115.76 106.978 115.76C102.585 115.76 99.3119 114.429 97.1517 111.761C94.995 109.096 93.9166 105.889 93.9166 102.135C93.9166 98.3818 94.995 95.2504 97.1517 92.5442C99.3084 89.8414 102.585 88.4865 106.978 88.4865C111.371 88.4865 114.644 89.8379 116.804 92.5442ZM106.954 94.1409C105.001 94.1409 103.494 94.8322 102.44 96.2147C101.386 97.5972 100.857 99.5707 100.857 102.135C100.857 104.7 101.386 106.677 102.44 108.066C103.494 109.459 105.001 110.154 106.954 110.154C108.907 110.154 110.407 109.459 111.457 108.066C112.505 106.677 113.03 104.696 113.03 102.135C113.03 99.5742 112.505 97.5972 111.457 96.2147C110.41 94.8322 108.91 94.1409 106.954 94.1409Z" fill="white"/>
<path d="M144.54 115.76H122.475V110.555L135.581 95.6408H123.363V90.2006H144.091V95.7583L131.123 110.271H144.537V115.76H144.54Z" fill="white"/>
</svg>
