<svg width="144" height="120" viewBox="0 0 144 120" fill="none" xmlns="http://www.w3.org/2000/svg">
<path d="M114.754 42.8576H110.405C107.029 42.8576 104.679 39.5016 105.833 36.329L109.399 26.5286C110.553 23.356 108.205 20 104.827 20H57.7778C53.6867 20 50.0346 22.5586 48.6351 26.4024L24.2231 93.4714C23.0691 96.644 25.4175 100 28.7953 100H94.0878C98.1789 100 101.833 97.4414 103.231 93.5976L119.322 49.3845C120.476 46.2119 118.128 42.8559 114.75 42.8559L114.754 42.8576ZM88.1682 48.3348L83.5355 84.8014C83.2259 87.2322 81.1585 89.0523 78.7093 89.0523H46.0277C42.2579 89.0523 39.9213 84.9511 41.8424 81.7079L62.0303 47.6266C63.7815 44.6693 66.9642 42.8559 70.4009 42.8559H83.3403C86.2707 42.8559 88.5349 45.4263 88.1665 48.3332L88.1682 48.3348Z" fill="white"/>
</svg>
